<svg xmlns="http://www.w3.org/2000/svg" viewBox="0 0 24.97 24.97"><defs><style>.cls-1{fill:#fff;}.cls-2{fill:#41454a;}</style></defs><g id="Слой_2" data-name="Слой 2"><g id="Layer_1" data-name="Layer 1"><circle class="cls-1" cx="12.49" cy="12.49" r="12.49"/><path class="cls-2" d="M20.29,17.43,14,1.63H9.49l.8,2-5.4,13.8c-.2.7-.8.8-1.4.9v.9h5.2v-.9h0c-1.4-.1-2.2-.3-1.6-1.8a24,24,0,0,0,1-2.6h6.4l.9,2.3a4.4,4.4,0,0,1,.2,1c0,.8-.7,1.1-2,1.1v.9h8.2v-.9C21.09,18.23,20.49,18,20.29,17.43Zm-11.6-5.2c1-2.5,2.1-5.4,2.5-6.5l2.6,6.5Z"/></g></g></svg>