<?xml version="1.0" encoding="utf-8"?>
<!-- Generator: Adobe Illustrator 18.1.1, SVG Export Plug-In . SVG Version: 6.00 Build 0)  -->
<svg version="1.1" id="Слой_1" xmlns="http://www.w3.org/2000/svg" xmlns:xlink="http://www.w3.org/1999/xlink" x="0px" y="0px"
	 viewBox="-295.8 236.9 87.4 87.7" enable-background="new -295.8 236.9 87.4 87.7" xml:space="preserve">
<path fill="#F26C4F" d="M-208.4,263.9l-44.5,31c1.2,0.9,2.4,1.5,3.7,1.8c1.3,0.4,2.9,0.6,5,0.6c4.2,0,8.3-1,12.3-2.9
	c2.8-1.3,5.4-3,8-5.3l13.8,23.5c-6.2,4.5-12.7,7.7-19.7,9.6c-5.3,1.5-10.8,2.2-16.3,2.2c-15.6,0-27.9-4.5-37.1-13.6
	c-8.3-8.2-12.5-18.3-12.5-30.2c0-11.9,4.2-22.1,12.5-30.6c8.7-8.9,19.8-13.3,33.3-13.3c8.9,0,17,2.3,24.4,6.8
	C-218.2,248.2-212.5,255-208.4,263.9z M-240.9,265.5c-1.3-1.4-2.7-2.4-4.2-3c-1.5-0.6-3.2-1-5.1-1c-3.8,0-7.1,1.3-9.8,3.8
	c-2.7,2.5-4.1,6.2-4.1,11c0,1.8,0.4,3.4,1.1,4.6L-240.9,265.5z"/>
</svg>
