<svg xmlns="http://www.w3.org/2000/svg" viewBox="0 0 21.94 21.94"><defs><style>.cls-1{fill:#7e7a00;}.cls-2{fill:#dccd00;}.cls-3{fill:#f29400;}.cls-4{fill:#d40028;}</style></defs><g id="Слой_2" data-name="Слой 2"><g id="Слой_1-2" data-name="Слой 1"><path class="cls-1" d="M11,0a11,11,0,1,0,11,11A11,11,0,0,0,11,0Zm.64,20.67a9.7,9.7,0,1,1,9.7-9.7A9.7,9.7,0,0,1,11.61,20.67Z"/><path class="cls-2" d="M6.44,3.12A9.06,9.06,0,1,0,18.82,6.44,9.06,9.06,0,0,0,6.44,3.12Zm9,14.28A7.79,7.79,0,1,1,18.27,6.76,7.79,7.79,0,0,1,15.42,17.4Z"/><path class="cls-3" d="M4.78,7.39a7.16,7.16,0,1,0,9.78-2.62A7.15,7.15,0,0,0,4.78,7.39Zm11.74,6.05a6,6,0,1,1-2.21-8.25A6,6,0,0,1,16.52,13.44Z"/><path class="cls-4" d="M5.57,11A5.41,5.41,0,1,0,11,5.56,5.41,5.41,0,0,0,5.57,11Zm9.7-.64A4.29,4.29,0,1,1,11,6,4.29,4.29,0,0,1,15.27,10.33Z"/></g></g></svg>