<?xml version="1.0" standalone="no"?>
<!DOCTYPE svg PUBLIC "-//W3C//DTD SVG 20010904//EN"
 "http://www.w3.org/TR/2001/REC-SVG-20010904/DTD/svg10.dtd">
<svg version="1.0" xmlns="http://www.w3.org/2000/svg"
 width="50.000000pt" height="50.000000pt" viewBox="0 0 50.000000 50.000000"
 preserveAspectRatio="xMidYMid meet">

<g transform="translate(0.000000,50.000000) scale(0.100000,-0.100000)"
fill="#000000" stroke="none">
<path d="M380 475 c-7 -8 -38 -22 -69 -31 -146 -40 -198 -74 -226 -149 -14
-36 -15 -50 -5 -79 11 -34 70 -96 92 -96 16 0 -11 -29 -43 -46 -16 -8 -41 -14
-58 -14 -16 0 -33 -5 -37 -11 -14 -23 93 -4 128 23 l34 26 33 -30 c29 -26 40
-30 76 -26 55 7 100 41 128 97 31 65 31 190 -1 284 -25 70 -31 77 -52 52z m50
-131 c33 -157 -45 -300 -153 -280 -21 4 -41 15 -47 27 -9 17 -5 27 28 67 45
54 112 161 112 180 0 25 -17 10 -39 -35 -26 -54 -107 -162 -127 -170 -21 -8
-79 33 -99 71 -16 30 -17 40 -7 75 17 54 80 107 152 127 30 8 75 23 100 32
l45 18 12 -27 c6 -15 17 -53 23 -85z"/>
</g>
</svg>
