<?xml version="1.0" standalone="no"?>
<!DOCTYPE svg PUBLIC "-//W3C//DTD SVG 20010904//EN"
 "http://www.w3.org/TR/2001/REC-SVG-20010904/DTD/svg10.dtd">
<svg version="1.0" xmlns="http://www.w3.org/2000/svg"
 width="64.000000pt" height="64.000000pt" viewBox="0 0 64.000000 64.000000"
 preserveAspectRatio="xMidYMid meet">

<g transform="translate(0.000000,64.000000) scale(0.100000,-0.100000)"
fill="#000000" stroke="none">
<path d="M292 611 c-12 -16 -37 -35 -57 -42 -38 -14 -45 -25 -17 -31 9 -2 36
11 60 30 l42 34 43 -34 c23 -19 50 -32 60 -30 27 6 20 17 -18 31 -20 7 -45 26
-57 42 -12 16 -25 29 -28 29 -3 0 -16 -13 -28 -29z"/>
<path d="M178 517 c-35 -14 -35 -20 -1 -47 18 -14 29 -17 31 -10 3 7 -2 16 -9
21 -12 8 -11 11 4 20 17 10 24 30 10 28 -5 -1 -20 -6 -35 -12z"/>
<path d="M420 522 c0 -6 8 -15 18 -21 16 -9 16 -11 -3 -25 -11 -8 -17 -18 -12
-22 8 -8 58 25 64 43 2 6 -4 13 -14 16 -10 2 -26 8 -35 12 -11 4 -18 3 -18 -3z"/>
<path d="M137 433 c-35 -5 -31 -22 12 -47 34 -20 58 -13 28 8 -21 16 -22 26
-3 26 8 0 18 5 21 10 6 10 -6 11 -58 3z"/>
<path d="M464 425 c20 -15 20 -15 0 -29 -33 -24 -7 -30 30 -6 44 27 45 36 5
44 -47 9 -56 7 -35 -9z"/>
<path d="M90 353 c-8 -2 -22 -7 -30 -10 -10 -3 0 -13 30 -28 25 -13 51 -24 58
-25 22 0 12 20 -13 26 -30 7 -33 24 -6 24 11 0 23 5 26 10 6 10 -37 13 -65 3z"/>
<path d="M485 350 c3 -5 15 -10 26 -10 10 0 19 -4 19 -10 0 -5 -6 -10 -13 -10
-17 0 -54 -27 -47 -34 8 -7 110 41 110 52 0 10 -47 22 -82 22 -10 0 -16 -4
-13 -10z"/>
<path d="M32 273 c-17 -2 -32 -8 -32 -12 0 -11 86 -48 132 -56 43 -8 42 -20
-2 -28 -16 -4 -30 -11 -30 -16 0 -10 18 -14 113 -26 l49 -7 -7 -36 c-4 -20
-16 -47 -27 -59 -17 -19 -18 -23 -6 -28 8 -3 26 -2 39 4 16 5 31 5 42 0 11 -6
23 -6 34 -1 10 6 27 6 45 0 16 -6 31 -8 33 -6 3 2 -4 22 -15 43 -11 22 -20 49
-20 62 0 19 7 23 48 28 94 12 112 16 112 26 0 5 -14 12 -30 16 -44 8 -45 20
-2 28 47 9 132 45 132 56 0 5 -10 9 -22 9 -13 0 -40 3 -60 6 -25 5 -38 3 -38
-5 0 -6 9 -11 19 -11 11 0 22 -4 25 -9 7 -10 -51 -28 -121 -37 -50 -6 -74 -24
-35 -24 9 -1 28 -7 41 -14 23 -13 23 -13 -15 -19 -22 -4 -49 -4 -62 -1 -12 4
-29 1 -37 -6 -12 -10 -18 -10 -30 0 -8 7 -25 10 -37 7 -12 -4 -42 -3 -66 0
l-45 6 43 17 c50 19 46 24 -30 38 -30 6 -68 16 -85 23 -28 12 -29 13 -7 16 12
3 22 9 22 14 0 9 -7 9 -68 2z m302 -164 c11 9 15 8 20 -5 13 -35 6 -62 -18
-68 -39 -10 -56 2 -56 38 0 39 8 50 27 35 9 -9 17 -8 27 0z"/>
</g>
</svg>
