<?xml version="1.0" encoding="UTF-8" standalone="yes"?>
<!-- Created with sK1/UniConvertor (http://sk1project.org/) -->
<svg xmlns="http://www.w3.org/2000/svg" xmlns:xlink="http://www.w3.org/1999/xlink"
  width="980pt" height="908pt" viewBox="0 0 980 908"
  fill-rule="evenodd">
<g>
<g>
<path style="stroke:none; fill:#000000" d="M 539.1 1.5C 523.5 4.90002 509.8 12.5 496.7 24.9C 492.6 28.8 488.9 32 488.5 32C 488.1 32 484.5 29.4 480.5 26.1C 460 9.59998 440.7 2.59998 416 2.59998C 374.9 2.59998 288.4 25.1 241.5 48C 206.9 64.9 188.2 84.3 178.5 113.2L 175.1 123.5L 164.7 124.2C 148.7 125.2 134.4 129.4 121.8 136.7C 100.2 149.3 67 193.5 45.5 238.3C 28.5 273.8 22.6 295.9 22.6 324.5C 22.6 341.2 23.6 347.8 28.2 362.7L 31.3 372.8L 23 382.2C 5.20004 402.2 -0.999962 425.5 0.300037 466.5C 2.20004 521.3 13.9 563 37.5 598.6C 45.4 610.4 59.7 626.2 70.7 635.3C 92.5 653.1 123.1 669.2 172 688.5C 248.7 718.7 258.4 723.1 285.1 739.1L 302 749.3L 295.6 756.9C 284.7 770.1 275.1 786 265.8 806.5C 254.3 831.5 252.7 845.7 259.5 859.6C 264.3 869.3 276.8 878.2 290.2 881.6C 302.7 884.6 389.6 885.2 417.7 882.4L 423.9 881.8L 431.2 887.1C 462.1 909.6 498.5 913.9 530.7 899C 541.2 894.1 547.7 889.7 558.2 880.5L 566.7 873.1L 572 875.1C 585.4 880.2 604.1 883.3 628.5 884.5C 644.2 885.3 681.1 883.5 689.5 881.5C 703.8 878.2 715.8 869.2 721.6 857.5C 724.1 852.2 724.5 850.4 724.4 843C 724.3 819.7 708.1 787.9 682.1 760L 674.2 751.5L 683.8 745.2C 702.4 733 746.6 712 788.8 695.5C 860.9 667.2 887.1 654.2 910.5 635C 930.2 618.9 949 594.2 958.9 571.3C 972.8 539.3 981.1 492.8 979.6 455.5C 978.3 420.4 970.4 396.1 955 379.8L 948.3 372.6L 952.1 364.5C 959.3 349.1 962 332.4 960 315.5C 958.4 302.3 952.3 278.4 946.5 263C 928 213.8 884.5 149.7 859.8 135.2C 847.5 127.9 833.6 125 811.5 125L 799.4 125L 797.8 118.2C 794.9 106.5 789.9 94 785 86.6C 779 77.8 760.9 60.0001 751.4 53.7C 735.5 43.2 699.8 31.4 638.7 16.5C 604.1 8.09998 582.1 3.40002 567.7 1.5C 553.6 -0.299988 547.6 -0.299988 539.1 1.5zM 578.6 43.1C 628.5 53.8 676.9 66 699.8 73.6C 714 78.3 731.1 86.7 738.3 92.4C 744.9 97.7 752.1 107 755.9 115C 758.1 119.8 758.4 121.8 758.5 131L 758.5 141.5L 747.1 168.5C 740.9 183.3 716.2 241.6 692.3 298C 668.3 354.4 642.5 415.3 634.8 433.5C 603.4 507.5 589.9 540.6 589.3 544.7C 587.6 557.2 599.7 568.1 611.9 565C 619.9 563 622.1 560.5 628.9 545.3C 635.4 531.1 676.6 435.1 725.8 320C 760.9 237.7 776.4 202.4 785 184.2L 791.9 169.9L 797.2 167.5C 805.4 163.8 815.6 162.4 824.1 163.9C 840.4 166.9 850.2 175.5 870.9 205C 892.2 235.5 909.5 270.8 917.1 299.7C 919.9 310.1 920.3 313.2 920.4 325.5C 920.5 338.8 920.4 339.8 917.8 345C 916.3 348.1 911.4 355.1 906.9 360.5C 902.4 366 850.5 418.9 791.5 478C 732.6 537.1 680.1 590.4 674.7 596.3C 665.2 606.9 665 607.3 665 612C 665 620.6 668.8 626.5 676.5 630.1C 682.6 632.9 687.9 632.6 692.8 629C 699.5 624.2 735.1 589.5 831.9 493.6L 923.4 403L 925.7 405.7C 929.9 410.8 932.8 416.4 936.2 426L 939.5 435.5L 939.4 461C 939.3 488.8 937.8 504.1 933.4 523.9C 926.9 552.8 915 575.7 897.2 593.8C 875.7 615.6 854.9 626.9 788.5 653.3C 739.2 672.9 723.3 679.8 699 692.1C 665.6 709 638.8 727.5 617.1 748.5C 601.4 763.7 593.6 773.1 568.5 806.5C 539.7 844.9 530.1 855.3 517.1 862.3C 502.6 870.2 481 869.9 465.1 861.5C 451.5 854.3 440.5 843.1 410.6 806C 386.8 776.4 375.3 763.4 357.9 746.5C 334.2 723.5 311.9 707.8 279.5 691.5C 257.5 680.5 242.2 673.9 199.5 657.1C 146 636.2 131.3 629.3 111.2 616C 95.9 605.8 85.9 597.1 77.6 586.8C 58.8 563.5 46.9 533.8 42 497.5C 41.4 493.1 40.7 477.3 40.3 462.5C 39.7 433.1 40.2 428.8 45.6 417.3C 48.3 411.6 54 406 57 406C 60.3 406 85.3 427.7 164 499C 260.4 586.3 295.3 617.4 299.4 619.7C 300.5 620.4 304 620.9 307 620.9C 313.2 621 319 618.3 322.3 613.8C 324.8 610.4 325.7 600.8 324 595.6C 322.5 591.1 305.4 575 187 467C 86.2 375 69.8 359.2 65.3 349.5C 62.8 344 62.5 342.3 62.2 328.7C 61.7 311 63 300.9 67.5 287.5C 74.1 267.6 91 233.9 104.3 214C 118.9 192.2 136 173.5 147.1 167.5C 152.1 164.8 153.5 164.5 164.3 164.2C 170.7 164 177.1 164.1 178.5 164.4C 180.4 164.9 182 167 184.9 172.8C 190.2 183.4 217 240.9 263 340.5C 337.4 501.5 359.9 549.6 363.1 554.1C 366.1 558.4 370.5 560.2 377.4 560.3C 386.8 560.4 392.1 556.8 394.5 548.6C 397.3 539.3 397.8 540.5 312.2 354C 262.1 244.7 232.5 179.3 221.6 153.7C 215.9 140.6 214.8 137 214.9 132.6C 215.1 113.8 233.1 94.9 264.1 80.9C 308.3 60.9 381.8 41.9999 415.4 41.9999C 425.4 41.9999 436.8 44.7 444.9 48.9999C 451.8 52.7 463.8 63.2999 465.2 66.9C 469.4 77.9999 469.9 99.4999 471 327.4L 472 534.4L 474.3 536.8C 481.8 545 498.3 544.9 505.9 536.7L 508.2 534.1L 509.2 303.8L 510.2 73.4999L 514.8 65.5999C 520.3 56.3999 528.8 48.0999 537.1 43.9999C 549.1 37.9 554 37.8 578.6 43.1zM 342.3 786.2C 357.3 801.3 388 839.5 388 843.1C 388 844 387 845 385.8 845.4C 382.2 846.3 336.4 846.1 317.1 845C 297.8 843.9 295 843.1 295 838.1C 295 834.5 309.1 806.1 316.8 794.5C 322.8 785.3 329.8 778 332.6 778C 333.4 778 337.8 781.7 342.3 786.2zM 653.4 787.1C 668.2 802.9 685.5 831.1 684.8 838.5C 684.4 842.7 681.5 843.8 667.9 845C 641.9 847.3 596.9 844.4 595.3 840.4C 594.6 838.6 598.2 832.6 608.6 818.4C 624.5 796.7 640.5 778 643.3 778C 644.1 778 648.7 782.1 653.4 787.1z"/>
</g>
</g>
</svg>